<?xml version="1.0" encoding="UTF-8"?>
<svg id="Graphics" xmlns="http://www.w3.org/2000/svg" viewBox="0 0 480 480">
  <defs>
    <style>
      .cls-1 {
        fill: #3ecfb8;
      }
    </style>
  </defs>
  <path class="cls-1" d="M223.1,279.14l-51.37-29.66c-12.29-7.1-17.07-15.38-17.08-29.58v-16.82c0-13.71,4.82-22.06,16.69-28.92l51.37-29.66c12.3-7.1,21.86-7.1,34.16,0l51.37,29.66c12.59,7.27,17.08,15.05,17.08,29.58v23.58l-25.6-14.78c0-10.17-3.15-15.62-11.96-20.71l-35.96-20.76c-8.6-4.97-15.3-4.97-23.91,0l-35.96,20.76c-8.31,4.8-11.68,10.15-11.68,19.76s3.69,15.44,11.95,20.21l35.96,20.76c8.81,5.09,15.11,5.08,23.91,0l8.59-4.96,25.6,14.78-29.01,16.75c-12.57,7.26-21.57,7.27-34.16,0h0Z"/>
  <path class="cls-1" d="M256.88,200.24l51.37,29.66c12.29,7.1,17.07,15.38,17.08,29.58v16.82c0,13.71-4.82,22.06-16.69,28.92l-51.37,29.66c-12.3,7.1-21.86,7.1-34.16,0l-51.37-29.66c-12.59-7.27-17.08-15.05-17.08-29.58v-23.58l25.6,14.78c0,10.17,3.15,15.62,11.96,20.71l35.96,20.76c8.6,4.97,15.3,4.97,23.91,0l35.96-20.76c7.99-4.62,11.69-10.12,11.69-19.75s-3.35-15.25-11.96-20.22l-35.96-20.76c-8.81-5.09-15.11-5.08-23.91,0l-8.6,4.96-25.6-14.78,29.01-16.75c12.57-7.26,21.57-7.27,34.16,0h0Z"/>
</svg>